<?xml version="1.0" encoding="UTF-8" standalone="no"?>
<svg
   height="494"
   width="408"
   stroke="#000"
   stroke-width="3"
   version="1.1"
   id="svg11851"
   sodipodi:docname="Wappen_St._Gallen_matt.svg"
   inkscape:version="1.2.1 (9c6d41e410, 2022-07-14)"
   xmlns:inkscape="http://www.inkscape.org/namespaces/inkscape"
   xmlns:sodipodi="http://sodipodi.sourceforge.net/DTD/sodipodi-0.dtd"
   xmlns="http://www.w3.org/2000/svg"
   xmlns:svg="http://www.w3.org/2000/svg">
  <defs
     id="defs11855" />
  <sodipodi:namedview
     id="namedview11853"
     pagecolor="#ffffff"
     bordercolor="#000000"
     borderopacity="0.25"
     inkscape:showpageshadow="2"
     inkscape:pageopacity="0.0"
     inkscape:pagecheckerboard="0"
     inkscape:deskcolor="#d1d1d1"
     showgrid="false"
     inkscape:zoom="1.1980736"
     inkscape:cx="111.84621"
     inkscape:cy="259.58338"
     inkscape:window-width="1920"
     inkscape:window-height="1017"
     inkscape:window-x="-8"
     inkscape:window-y="-8"
     inkscape:window-maximized="1"
     inkscape:current-layer="svg11851" />
  <path
     d="m203.1 1.5h201.8v296.6c0 106.6-90.3 193-201.7 193s-201.7-86.4-201.7-193v-296.6h201.6z"
     fill="#16a74e"
     id="path11821"
     style="fill:#00a55b;fill-opacity:1" />
  <g
     id="g14981">
    <path
       d="m 196.16824,28.566469 a 9.8403549,8.7340428 0 0 1 19.56426,0 V 466.20024 a 9.8403549,8.7340428 0 0 1 -19.56426,0 z"
       fill="white"
       id="path7260"
       style="fill:#ffffff;fill-opacity:1;stroke-width:3.49362"
       inkscape:label="path7260" />
    <path
       d="m 168.39399,417.05669 a 8.6758163,8.3846816 0 0 1 -17.35163,0 V 120.44861 a 8.6758163,7.4530502 0 0 1 17.35163,0 v 294.97773 a 10.917557,10.364402 0 0 0 21.83511,0 V 122.31186 a 10.917557,9.7821315 0 0 0 -21.83511,0 m 75.11276,294.74483 a 8.67582,8.3846852 0 0 0 17.35164,0 V 120.44861 a 8.67582,7.4530535 0 0 0 -17.35164,0 v 294.97773 a 10.917555,10.3644 0 0 1 -21.83511,0 V 122.31186 a 10.917555,9.7821297 0 0 1 21.83511,0 m -53.27765,3.26071 a 15.721277,13.392199 0 0 1 31.44254,0 v 287.64114 a 15.721277,12.809929 0 0 1 -31.44254,0 M 230.40568,77.360647 V 44.986469 H 201.29222 C 172.17874,44.753552 156.45747,29.84746 143.76399,13.311007 c -8.03531,15.837725 -10.36441,25.619854 -10.71376,40.525957 0.46582,17.468086 2.56199,28.065383 12.80993,46.581566 16.18709,-16.536464 31.09319,-22.708525 53.91815,-23.057883 z"
       fill="white"
       id="path7262"
       style="fill:#ffffff;fill-opacity:1;stroke-width:3.49362" />
    <path
       d="m 145.9766,139.54704 h 119.94753 v 25.61987 H 145.9766 Z m 0,233.72299 h 119.94753 v 25.61986 H 145.9766 Z m 0,-14.20738 h 1.74682 L 265.92413,218.7357 v -39.24497 h -1.74681 L 145.9766,319.81768 Z"
       stroke-linejoin="round"
       id="path7264"
       style="fill:#00a55b;fill-opacity:1;stroke-width:3.49362" />
    <path
       d="m 145.9766,179.49073 h 1.74682 l 118.20071,140.32695 v 39.24497 h -1.74681 L 145.9766,218.7357 Z"
       stroke-linejoin="round"
       id="path7266"
       style="display:inline;fill:#00a55b;fill-opacity:1;stroke-width:3.49362" />
  </g>
</svg>
